<svg xmlns="http://www.w3.org/2000/svg" viewBox="0 0 241.06 211.87"><defs><style>.cls-1{fill:#307000;}</style></defs><g id="Layer_2" data-name="Layer 2"><g id="Layer_2-2" data-name="Layer 2"><path id="path16" class="cls-1" d="M113.11,199.23c9.48-5.63,15.23-17.39,16-28.53.62-9.09-2.9-23-11-29.93-10.68-9.1-25.39-8-34.18,1.52-4.72,5.12-7.53,12.81-6.62,19.86.65,5,3.63,9.93,7.1,13.48,4.89,5,14.32,1.38,14.32-4.57a10.69,10.69,0,0,0-.61-4.3c-1.38-2.93-3.27-4.38-3.66-7.11-1.12-7.82,7.64-11.65,13.68-4.5a20.4,20.4,0,0,1,4.41,15.61c-1.16,8-6.28,12-12,16.35-7,5.34-21.16,8.43-31.33,7.76-5.6-.36-16.25-3.21-23.64-6.93C33.3,181.78,28.73,173.69,23,163.41c-12.4-22.12-5.31-53.35,4.69-77.57,3.15-7.63,5.56-11.7,9.4-18.86,7.11-12.09,15.72-23.2,26.32-32.22S84.05,21.32,97.71,18.5c20.74-4.28,38.94,2.17,54.89,13.37,3.48,2.45,8.67,7.14,12,8.92,2.84,1.12,5.61.18,7.79-1.59,2.43-2,3.24-4.57,6-6.37,5.58-3.66,10.53,2.17,14.41,5.57,3.73,3.14,7.43,6.28,11.1,9.49,6.16,5.44,11.82,10.54,18.23,15.75,7.41,5.58-10.52,27.17-30,27.21-8.63,0-24.08-.62-26,0-7.08,2.14-9.44,15.74,4,15.9,26.87.33,54,3.32,66.46-26.94,3.07-7.48,6.44-18.39,3.11-22.62l-3.25-3.27-.17-.16c-5.09-4.41-15.64-12.84-19.53-17.07-10-8.69-20.3-20.34-34.12-22.06-5.94-.74-15.88,6.06-17.55,4.79C149.54,9.05,133.05,1.32,114,.1,103.05-.6,89.36,2.61,78,6.92c-6.91,2.62-17.23,7.55-23,12.61-37.52,30.41-65.21,90-51.31,138.52,9.72,33.88,41.94,57,77.87,53.47,12.23-1.18,21.74-5.64,31.59-12.29ZM183,48.63a8.09,8.09,0,1,0,7.91,8.09A8,8,0,0,0,183,48.63Zm-3.2,5a2.9,2.9,0,1,0,2.84,2.9A2.87,2.87,0,0,0,179.78,53.64ZM130,85.79H108.8c-4.92,0-6.93,2.23-8.58,5.47-1.22,2.38-.55,5.58.74,7.91,1.66,3,4.21,3.3,7.18,3.28l23.56,0c1.47,0,1.52-.22,1.87.75s.16,3.55.09,5.89c-.17,5.23,2.41,10.27,6.11,14,5.46,5.54,12.25,6,19.54,5.65,10-.46,19.93-.51,29.94-.9,4.43-.17,10.17-.14,11.07-6.13.62-4.11-3.11-8.42-7.21-8.49-13-.17-26-.61-38.92-.61-3.69,0-5-3.33-3.75-6.47,3-7.27,7.4-15.69,11.23-22.84,1.33-2.49,2.78-5.38,2.59-8.14a8.24,8.24,0,0,0-7.76-7.33c-1.45,0-4.91,1.23-5.76,2.41-2.46,3.42-4.93,9.09-6.89,13-1.27,1.93-.23,2.27-3,2.54-4,.38-6.5,0-10.8,0ZM22.94,151.85c-2.62,11.41,10.91,13.52,14.3,6.14,2-4.39,2.1-8.6,3.83-13.16,4.41-18,5.8-26.27,22.26-36.85,6-3.82,12.5-6.41,17.69-5.2,0,5.66.07,20.47,3.34,23.77,2.3,2.32,3.13,1.75,6.65,2.51,4.07.87,19,.56,23.72-.42,9.32-1.94,6.67-15.22-.41-16-4.56-.52-10.6.23-15.37,0-2.53-.11-1.62-2-1.59-7.89,0-5.4-1.21-10.57-1.33-15.33-.18-7.1-7.42-5.84-15.2-3.81C55.28,92.28,43.9,96.68,34.05,115.45,28,127,25.82,139.3,22.94,151.85Z"/></g></g></svg>